<svg width="200" height="80" viewBox="0 0 200 80" fill="none" xmlns="http://www.w3.org/2000/svg">
<path d="M12.88 38.16C14 37.92 15.12 37.92 16.24 38C17.36 38.08 18.48 38.4 19.6 38.88C20.64 39.36 21.6 40.16 22.24 41.12C22.96 42.08 23.12 43.28 23.2 44.4C23.12 44.16 23.04 43.84 22.96 43.6L22.8 43.2C22.72 43.04 22.64 42.96 22.64 42.8C22.48 42.56 22.4 42.32 22.24 42.08L21.76 41.44C21.12 40.64 20.24 39.92 19.28 39.52C18.32 39.04 17.28 38.8 16.16 38.56C15.6 38.48 15.04 38.4 14.48 38.32C14 38.24 13.44 38.24 12.88 38.16Z" fill="white"/>
<path d="M54.88 68.4V67.44H57.6V68.4H54.88Z" fill="white"/>
<path d="M61.84 68.64L62.72 68.8C62.64 69.44 62.4 69.92 62 70.32C61.6 70.72 61.12 70.88 60.56 70.88C59.84 70.88 59.28 70.64 58.88 70.16C58.48 69.68 58.24 68.96 58.24 68C58.24 67.36 58.32 66.88 58.48 66.4C58.64 65.92 58.96 65.6 59.28 65.36C59.68 65.12 60.08 65.04 60.48 65.04C61.04 65.04 61.52 65.2 61.84 65.52C62.16 65.84 62.4 66.24 62.48 66.8L61.6 66.96C61.52 66.56 61.36 66.32 61.2 66.08C60.96 65.92 60.72 65.76 60.48 65.76C60.08 65.76 59.68 65.92 59.44 66.24C59.2 66.56 59.04 67.12 59.04 67.84C59.04 68.56 59.2 69.12 59.44 69.52C59.68 69.84 60.08 70 60.48 70C60.8 70 61.12 69.92 61.36 69.68C61.68 69.52 61.84 69.12 61.84 68.64Z" fill="white"/>
<path d="M66.96 68.96L67.84 69.12C67.68 69.68 67.44 70.16 67.04 70.48C66.64 70.8 66.16 70.96 65.6 70.96C64.88 70.96 64.24 70.72 63.84 70.24C63.44 69.76 63.2 68.88 63.2 68C63.2 67.04 63.44 66.32 63.84 65.76C64.32 65.2 64.88 64.96 65.6 64.96C66.32 64.96 66.88 65.2 67.28 65.76C67.68 66.32 67.92 66.96 67.92 67.92C67.92 68 67.92 68.08 67.92 68.16H64.08C64.08 68.8 64.24 69.28 64.56 69.6C64.88 69.92 65.2 70.08 65.6 70.08C65.92 70.08 66.16 70 66.4 69.84C66.64 69.6 66.8 69.36 66.96 68.96ZM64.08 67.36H66.96C66.96 66.88 66.8 66.56 66.64 66.32C66.4 65.92 66 65.76 65.6 65.76C65.2 65.76 64.88 65.92 64.56 66.16C64.24 66.4 64.16 66.88 64.08 67.36Z" fill="white"/>
<path d="M68.16 65.12H72.32V65.92H70.64V70.72H69.76V65.92H68.08V65.12H68.16Z" fill="white"/>
<path d="M73.12 65.12H74V67.28H75.12C75.84 67.28 76.4 67.44 76.8 67.76C77.2 68.08 77.36 68.48 77.36 69.04C77.36 69.52 77.2 69.92 76.88 70.24C76.56 70.56 76.08 70.72 75.36 70.72H73.2V65.12H73.12ZM74 69.92H74.88C75.44 69.92 75.84 69.84 76.08 69.68C76.32 69.52 76.4 69.28 76.4 68.96C76.4 68.72 76.32 68.48 76.16 68.32C76 68.16 75.6 68 75.04 68H74V69.92Z" fill="white"/>
<path d="M84.32 70C84 70.32 83.68 70.48 83.36 70.64C83.04 70.8 82.72 70.8 82.4 70.8C81.84 70.8 81.44 70.64 81.12 70.32C80.8 70 80.64 69.6 80.64 69.2C80.64 68.96 80.72 68.64 80.8 68.48C80.88 68.24 81.04 68.08 81.28 67.92C81.44 67.76 81.68 67.68 81.92 67.6C82.08 67.52 82.32 67.52 82.72 67.44C83.44 67.36 83.92 67.2 84.24 67.12C84.24 66.96 84.24 66.88 84.24 66.88C84.24 66.48 84.16 66.24 84 66.08C83.76 65.84 83.44 65.76 83.04 65.76C82.64 65.76 82.32 65.84 82.16 66C82 66.16 81.84 66.4 81.76 66.8L80.88 66.64C80.96 66.24 81.12 65.92 81.28 65.68C81.44 65.44 81.68 65.28 82.08 65.12C82.48 64.96 82.8 64.96 83.2 64.96C83.6 64.96 84 65.04 84.24 65.12C84.48 65.2 84.72 65.36 84.88 65.52C85.04 65.68 85.12 65.92 85.12 66.16C85.12 66.32 85.2 66.64 85.2 67.04V68.32C85.2 69.2 85.2 69.76 85.28 70C85.28 70.24 85.36 70.48 85.52 70.64H84.64C84.4 70.56 84.32 70.32 84.32 70ZM84.24 67.92C83.92 68.08 83.44 68.16 82.8 68.24C82.48 68.32 82.16 68.4 82.08 68.4C81.92 68.48 81.84 68.56 81.76 68.72C81.68 68.88 81.6 69.04 81.6 69.2C81.6 69.44 81.68 69.68 81.84 69.84C82 70 82.24 70.08 82.64 70.08C82.96 70.08 83.28 70 83.52 69.84C83.76 69.68 84 69.44 84.08 69.2C84.16 68.96 84.24 68.64 84.24 68.24V67.92Z" fill="white"/>
<path d="M86.48 65.12H88.48C88.96 65.12 89.36 65.2 89.6 65.28C89.84 65.36 90.08 65.52 90.24 65.76C90.4 66 90.48 66.32 90.48 66.64C90.48 66.88 90.4 67.12 90.32 67.36C90.24 67.6 90.08 67.76 89.84 67.84C90.08 67.92 90.24 68.08 90.4 68.32C90.56 68.56 90.64 68.88 90.64 69.2C90.64 69.76 90.4 70.16 90.16 70.4C89.92 70.64 89.36 70.8 88.8 70.8H86.48V65.12ZM87.36 67.44H88.32C88.72 67.44 88.96 67.44 89.04 67.36C89.2 67.28 89.28 67.2 89.44 67.12C89.52 66.96 89.6 66.8 89.6 66.64C89.6 66.32 89.52 66.16 89.28 66C89.12 65.92 88.8 65.84 88.32 65.84H87.36V67.44ZM87.36 69.92H88.48C88.96 69.92 89.28 69.84 89.52 69.76C89.68 69.6 89.76 69.44 89.84 69.12C89.84 68.96 89.76 68.8 89.68 68.64C89.6 68.48 89.44 68.4 89.28 68.32C89.12 68.32 88.8 68.24 88.48 68.24H87.44V69.92H87.36Z" fill="white"/>
<path d="M91.04 65.12H95.2V65.92H93.52V70.72H92.64V65.92H90.96V65.12H91.04Z" fill="white"/>
<path d="M95.6 67.92C95.6 66.88 95.84 66.08 96.4 65.6C96.8 65.2 97.36 64.96 98 64.96C98.72 64.96 99.28 65.2 99.76 65.68C100.24 66.16 100.4 66.88 100.4 67.76C100.4 68.48 100.32 69.04 100.08 69.44C99.92 69.84 99.6 70.16 99.2 70.4C98.8 70.64 98.4 70.72 98 70.72C97.28 70.72 96.72 70.48 96.24 70C95.76 69.52 95.6 68.88 95.6 67.92ZM96.48 67.92C96.48 68.64 96.64 69.2 96.88 69.52C97.2 69.84 97.52 70.08 97.92 70.08C98.32 70.08 98.72 69.92 98.96 69.52C99.28 69.12 99.36 68.64 99.36 67.84C99.36 67.12 99.2 66.64 98.96 66.24C98.64 65.92 98.32 65.68 97.92 65.68C97.52 65.68 97.12 65.84 96.88 66.24C96.56 66.64 96.48 67.2 96.48 67.92Z" fill="white"/>
<path d="M100.64 65.12H104.8V65.92H103.2V70.72H102.32V65.92H100.64V65.12Z" fill="white"/>
<path d="M109.04 68.96L109.92 69.12C109.76 69.68 109.52 70.16 109.12 70.48C108.72 70.8 108.24 70.96 107.68 70.96C106.96 70.96 106.32 70.72 105.92 70.24C105.52 69.76 105.28 69.04 105.28 68.08C105.28 67.12 105.52 66.4 105.92 65.84C106.4 65.28 106.96 65.04 107.68 65.04C108.4 65.04 108.96 65.28 109.36 65.84C109.76 66.4 110 67.04 110 68C110 68.08 110 68.16 110 68.24H106.16C106.16 68.88 106.32 69.36 106.64 69.68C106.96 70 107.28 70.16 107.68 70.16C108 70.16 108.24 70.08 108.48 69.92C108.72 69.6 108.88 69.36 109.04 68.96ZM106.24 67.36H109.12C109.12 66.88 108.96 66.56 108.8 66.32C108.56 65.92 108.16 65.76 107.76 65.76C107.36 65.76 107.04 65.92 106.72 66.16C106.4 66.4 106.24 66.88 106.24 67.36Z" fill="white"/>
<path d="M110.24 70.72L112.08 67.76L110.32 65.04H111.44L112.24 66.32C112.4 66.56 112.48 66.8 112.56 66.96C112.72 66.72 112.8 66.56 112.96 66.32L113.84 64.96H114.88L113.12 67.6L115.04 70.56H114L112.96 68.8L112.72 68.32L111.36 70.56H110.24V70.72Z" fill="white"/>
<path d="M115.76 65.12H116.64V69.92H119.04V65.12H119.92V69.92H120.48V72.32H119.76V70.72H115.76V65.12Z" fill="white"/>
<path d="M124.8 68.96L125.68 69.12C125.52 69.68 125.28 70.16 124.88 70.48C124.48 70.8 124 70.96 123.44 70.96C122.72 70.96 122.08 70.72 121.68 70.24C121.28 69.76 121.04 69.04 121.04 68.08C121.04 67.12 121.28 66.4 121.68 65.84C122.16 65.28 122.72 65.04 123.44 65.04C124.16 65.04 124.72 65.28 125.12 65.84C125.52 66.4 125.76 67.04 125.76 68C125.76 68.08 125.76 68.16 125.76 68.24H121.92C121.92 68.88 122.08 69.36 122.4 69.68C122.72 70 123.04 70.16 123.44 70.16C123.76 70.16 124 70.08 124.24 69.92C124.48 69.6 124.64 69.36 124.8 68.96ZM121.92 67.36H124.8C124.8 66.88 124.64 66.56 124.48 66.32C124.24 65.92 123.84 65.76 123.44 65.76C123.04 65.76 122.72 65.92 122.4 66.16C122.08 66.4 121.92 66.88 121.92 67.36Z" fill="white"/>
<path d="M126.72 65.12H127.6V67.44H130V65.12H130.88V70.72H130V68.24H127.6V70.72H126.72V65.12Z" fill="white"/>
<path d="M131.68 65.12H135.84V65.92H134.16V70.72H133.28V65.92H131.6V65.12H131.68Z" fill="white"/>
<path d="M136.72 72.88V65.12H137.52V65.84C137.68 65.52 137.92 65.36 138.16 65.2C138.4 65.04 138.64 64.96 139.04 64.96C139.44 64.96 139.84 65.12 140.16 65.36C140.48 65.6 140.72 65.92 140.88 66.4C141.04 66.88 141.12 67.36 141.12 67.84C141.12 68.4 141.04 68.96 140.8 69.36C140.56 69.76 140.32 70.16 140 70.4C139.68 70.64 139.28 70.8 138.88 70.8C138.56 70.8 138.32 70.72 138.08 70.56C137.84 70.4 137.68 70.24 137.52 70.08V72.8H136.72V72.88ZM137.52 67.92C137.52 68.64 137.68 69.2 137.92 69.52C138.16 69.84 138.48 70 138.88 70C139.28 70 139.6 69.84 139.84 69.44C140.08 69.04 140.24 68.56 140.24 67.76C140.24 67.04 140.08 66.48 139.84 66.16C139.6 65.84 139.28 65.6 138.88 65.6C138.48 65.6 138.16 65.76 137.92 66.16C137.6 66.64 137.52 67.2 137.52 67.92Z" fill="white"/>
<path d="M141.84 67.92C141.84 66.88 142.08 66.08 142.64 65.6C143.04 65.2 143.6 64.96 144.24 64.96C144.96 64.96 145.52 65.2 146 65.68C146.48 66.16 146.64 66.88 146.64 67.76C146.64 68.48 146.56 69.04 146.32 69.44C146.16 69.84 145.84 70.16 145.44 70.4C145.04 70.64 144.64 70.72 144.24 70.72C143.52 70.72 142.96 70.48 142.48 70C142 69.52 141.84 68.88 141.84 67.92ZM142.72 67.92C142.72 68.64 142.88 69.2 143.12 69.52C143.44 69.84 143.76 70.08 144.16 70.08C144.56 70.08 144.96 69.92 145.2 69.52C145.52 69.12 145.6 68.64 145.6 67.84C145.6 67.12 145.44 66.64 145.2 66.24C144.88 65.92 144.56 65.68 144.16 65.68C143.76 65.68 143.36 65.84 143.12 66.24C142.88 66.64 142.72 67.2 142.72 67.92Z" fill="white"/>
<path d="M147.68 65.12H149.68C150.16 65.12 150.56 65.2 150.8 65.28C151.04 65.36 151.28 65.52 151.44 65.76C151.6 66 151.68 66.32 151.68 66.64C151.68 66.88 151.6 67.12 151.52 67.36C151.44 67.6 151.28 67.76 151.04 67.84C151.28 67.92 151.44 68.08 151.6 68.32C151.76 68.56 151.84 68.88 151.84 69.2C151.84 69.76 151.6 70.16 151.36 70.4C151.12 70.64 150.56 70.8 150 70.8H147.68V65.12ZM148.56 67.44H149.52C149.92 67.44 150.16 67.44 150.24 67.36C150.4 67.28 150.48 67.2 150.64 67.12C150.72 66.96 150.8 66.8 150.8 66.64C150.8 66.32 150.72 66.16 150.48 66C150.32 65.92 150 65.84 149.52 65.84H148.56V67.44ZM148.56 69.92H149.68C150.16 69.92 150.48 69.84 150.72 69.76C150.88 69.6 150.96 69.44 151.04 69.12C151.04 68.96 150.96 68.8 150.88 68.64C150.8 68.48 150.64 68.4 150.48 68.32C150.32 68.32 150 68.24 149.68 68.24H148.64V69.92H148.56Z" fill="white"/>
<path d="M152.56 68.4V67.44H155.2V68.4H152.56Z" fill="white"/>
<path d="M56.64 51.52L58.8 52.48C58.48 54.16 57.92 55.36 57.12 56.16C56.32 56.96 55.36 57.28 54.24 57.28C52.8 57.28 51.68 56.64 50.72 55.44C49.68 54 49.2 52.16 49.2 49.76C49.2 47.2 49.68 45.28 50.72 43.84C51.6 42.56 52.8 42 54.32 42C55.52 42 56.56 42.48 57.44 43.36C58 44 58.48 45.04 58.72 46.32L56.56 47.04C56.4 46.24 56.16 45.6 55.76 45.2C55.36 44.8 54.88 44.56 54.32 44.56C53.52 44.56 52.88 44.96 52.32 45.76C51.76 46.56 51.52 47.84 51.52 49.68C51.52 51.52 51.76 52.88 52.24 53.68C52.72 54.48 53.36 54.88 54.16 54.88C54.72 54.88 55.28 54.64 55.68 54.16C56.16 53.44 56.4 52.64 56.64 51.52Z" fill="#EC1C24"/>
<path d="M59.68 48.48V46.24H66.88V48.48H64.32V57.04H62.24V48.48H59.68Z" fill="#EC1C24"/>
<path d="M68.08 57.04V46.24H70.08V52.96L73.28 46.24H75.36V57.04H73.36V50.16L70.08 57.04H68.08Z" fill="#EC1C24"/>
<path d="M83.12 57.04V48.48H80.24V53.36C80.24 54.16 80.16 54.8 80.08 55.28C80 55.76 79.84 56.16 79.6 56.48C79.36 56.8 79.12 56.96 78.88 57.04C78.64 57.12 78.32 57.12 77.92 57.12C77.68 57.12 77.2 57.04 76.64 56.96V54.88C76.8 54.88 77.12 54.88 77.52 54.88C77.76 54.88 77.92 54.8 78 54.56C78.08 54.32 78.08 53.92 78.08 53.28V46.16H85.12V56.96H83.12V57.04Z" fill="#EC1C24"/>
<path d="M91.76 42.24H92.72C93.04 42.24 93.28 42.08 93.28 41.84H94.72C94.72 42.64 94.56 43.2 94.32 43.6C94.08 44 93.76 44.24 93.52 44.32C93.2 44.4 92.64 44.48 91.76 44.48C90.88 44.48 90.32 44.56 90 44.64C89.68 44.72 89.44 44.96 89.2 45.2C88.96 45.44 88.72 45.92 88.56 46.48C88.4 47.04 88.32 47.76 88.32 48.64C88.96 47.04 90 46.24 91.28 46.24C92.32 46.24 93.2 46.8 93.92 47.84C94.64 48.96 95.04 50.24 95.04 51.68C95.04 53.2 94.64 54.56 93.84 55.6C93.04 56.64 92.08 57.2 90.88 57.2C90 57.2 89.2 56.88 88.48 56.24C87.76 55.6 87.36 54.72 87.2 53.76C87.04 52.8 86.88 51.28 86.88 49.44C86.88 46.88 87.2 44.96 87.92 43.84C88.72 42.8 89.92 42.24 91.76 42.24ZM90.96 48.56C90.4 48.56 90 48.88 89.6 49.44C89.2 50 89.04 50.8 89.04 51.76C89.04 52.72 89.2 53.52 89.6 54.08C89.92 54.64 90.4 54.96 90.96 54.96C91.52 54.96 92 54.64 92.32 54.08C92.72 53.52 92.88 52.72 92.88 51.76C92.88 50.8 92.72 50.08 92.32 49.44C92 48.8 91.52 48.56 90.96 48.56Z" fill="#EC1C24"/>
<path d="M101.44 53.6L103.52 54.08C103.2 55.2 102.8 56 102.24 56.48C101.68 57.04 100.96 57.28 100.08 57.28C98.88 57.28 98 56.88 97.36 56C96.64 54.96 96.24 53.6 96.24 51.76C96.24 50 96.64 48.48 97.36 47.44C98 46.56 98.88 46.08 99.84 46.08C100.96 46.08 101.84 46.56 102.48 47.52C103.2 48.56 103.6 50.16 103.6 52.24V52.56H98.4C98.4 53.44 98.56 54.08 98.88 54.56C99.2 55.04 99.6 55.28 100.08 55.28C100.8 55.12 101.28 54.64 101.44 53.6ZM101.6 50.72C101.6 49.84 101.44 49.28 101.12 48.8C100.8 48.32 100.48 48.16 100 48.16C99.52 48.16 99.2 48.4 98.88 48.8C98.56 49.28 98.4 49.84 98.4 50.64H101.6V50.72Z" fill="#EC1C24"/>
<path d="M105.28 46.24H107.2V47.84C107.44 47.28 107.84 46.8 108.24 46.48C108.64 46.16 109.12 46 109.68 46C110.56 46 111.36 46.48 112 47.44C112.64 48.4 112.96 49.76 112.96 51.52C112.96 53.36 112.64 54.8 112 55.76C111.36 56.72 110.56 57.2 109.68 57.2C109.28 57.2 108.88 57.12 108.48 56.88C108.08 56.64 107.76 56.24 107.36 55.68V61.12H105.28V46.24ZM107.44 51.44C107.44 52.64 107.6 53.52 108 54.16C108.32 54.72 108.8 55.04 109.28 55.04C109.76 55.04 110.16 54.8 110.48 54.24C110.8 53.68 110.96 52.8 110.96 51.6C110.96 50.48 110.8 49.6 110.48 49.04C110.16 48.48 109.76 48.24 109.28 48.24C108.8 48.24 108.32 48.48 108 49.04C107.6 49.6 107.44 50.4 107.44 51.44Z" fill="#EC1C24"/>
<path d="M114.72 57.04V46.24H120.08V48.48H116.8V57.04H114.72Z" fill="#EC1C24"/>
<path d="M120.56 53.04V50.16H124.72V53.04H120.56Z" fill="white"/>
<path d="M127.84 49.52L125.92 49.04C126.16 47.92 126.56 47.2 127.04 46.72C127.6 46.24 128.32 46 129.36 46C130.24 46 130.96 46.16 131.36 46.4C131.84 46.64 132.16 47.04 132.4 47.52C132.64 48 132.72 48.88 132.72 50.16V53.52C132.72 54.48 132.72 55.12 132.8 55.6C132.88 56.08 132.96 56.56 133.2 57.04H131.12L130.88 55.84C130.56 56.32 130.16 56.64 129.76 56.88C129.36 57.12 128.88 57.28 128.48 57.28C127.68 57.28 127.04 56.96 126.56 56.4C126.08 55.84 125.84 55.04 125.84 54.08C125.84 53.44 125.92 52.96 126.16 52.48C126.4 52 126.64 51.68 127.04 51.36C127.44 51.12 128 50.88 128.8 50.64C129.76 50.4 130.48 50.16 130.8 49.92C130.8 49.36 130.8 48.96 130.72 48.72C130.64 48.56 130.48 48.4 130.32 48.24C130.08 48.16 129.84 48.08 129.44 48.08C129.04 48.08 128.8 48.16 128.56 48.4C128.16 48.64 128 48.96 127.84 49.52ZM130.64 51.84C130.4 52 129.92 52.08 129.36 52.24C128.72 52.4 128.32 52.64 128.08 52.88C127.84 53.12 127.76 53.44 127.76 53.76C127.76 54.16 127.84 54.56 128.08 54.8C128.32 55.12 128.56 55.2 128.88 55.2C129.2 55.2 129.44 55.12 129.76 54.88C130.08 54.64 130.24 54.4 130.4 54.08C130.48 53.76 130.56 53.2 130.56 52.4V51.84H130.64Z" fill="white"/>
<path d="M140 57.04H134.8V46.24H139.52C141.28 46.24 142.16 47.2 142.16 49.04C142.16 50.32 141.68 51.12 140.8 51.44C141.84 51.84 142.4 52.72 142.4 54.16C142.4 55.04 142.16 55.68 141.68 56.24C141.2 56.8 140.8 57.04 140 57.04ZM136.96 48.08V50.72H138.48C139.6 50.72 140.16 50.24 140.16 49.36C140.16 48.48 139.6 48.08 138.48 48.08H136.96ZM136.96 52.4V55.2H138.8C139.84 55.2 140.4 54.72 140.4 53.84C140.4 53.36 140.24 53.04 140 52.8C139.76 52.56 139.12 52.4 138.24 52.4H136.96Z" fill="white"/>
<path d="M143.28 48.48V46.24H150.48V48.48H147.92V57.04H145.84V48.48H143.28Z" fill="white"/>
<path d="M151.28 51.44C151.28 50.4 151.44 49.44 151.84 48.56C152.24 47.68 152.72 47.04 153.36 46.64C154 46.24 154.64 46 155.44 46C156.72 46 157.76 46.56 158.48 47.68C159.2 48.8 159.6 50.08 159.6 51.6C159.6 52.72 159.44 53.68 159.04 54.64C158.64 55.52 158.16 56.24 157.52 56.64C156.88 57.12 156.24 57.28 155.52 57.28C154.32 57.28 153.36 56.8 152.56 55.76C151.68 54.72 151.28 53.36 151.28 51.44ZM153.44 51.6C153.44 52.72 153.6 53.52 154 54.08C154.4 54.64 154.88 54.88 155.36 54.88C155.92 54.88 156.32 54.56 156.72 54C157.12 53.44 157.28 52.64 157.28 51.52C157.28 50.48 157.12 49.6 156.72 49.04C156.32 48.48 155.84 48.16 155.36 48.16C154.8 48.16 154.4 48.48 154 49.04C153.6 49.68 153.44 50.56 153.44 51.6Z" fill="white"/>
<path d="M53.2 37.92C63.92 33.44 75.28 30.56 86.8 28.72C92.56 27.76 98.32 27.2 104.16 26.8C110 26.4 115.84 26.32 121.68 26.48C127.52 26.64 133.36 27.12 139.12 27.92C142 28.24 144.88 28.8 147.76 29.28C150.64 29.84 153.52 30.4 156.32 31.04C167.68 33.6 178.72 37.6 189.2 42.48C183.76 40.48 178.32 38.48 172.72 36.96L170.64 36.32L168.56 35.76C167.2 35.36 165.76 35.04 164.4 34.64C161.6 34 158.8 33.28 155.92 32.72C153.12 32.08 150.24 31.68 147.44 31.12C144.56 30.72 141.76 30.24 138.88 30C133.12 29.36 127.44 28.88 121.6 28.72C110.08 28.32 98.56 28.96 87.04 30.4C81.28 31.2 75.6 32.16 70 33.36C64.24 34.64 58.64 36.08 53.2 37.92Z" fill="white"/>
<path d="M135.52 27.68C133.36 24.32 130.56 21.44 127.6 18.88C124.56 16.32 121.28 14.08 117.84 12.24C116.08 11.36 114.32 10.4 112.48 9.68001C111.6 9.28001 110.64 8.88001 109.76 8.56001L106.96 7.60001C106.48 7.44001 106 7.28001 105.52 7.12001L104.08 6.72001L101.2 5.92001C99.28 5.44001 97.28 5.12001 95.36 4.64001C96.32 4.72001 97.36 4.80001 98.32 4.96001C99.28 5.12001 100.32 5.12001 101.28 5.36001L104.24 5.92001L105.68 6.24001C106.16 6.32001 106.64 6.48001 107.12 6.64001L110 7.52001C110.96 7.84001 111.92 8.24001 112.8 8.56001C114.72 9.20001 116.48 10.24 118.32 11.04C121.84 13.04 125.2 15.28 128.08 18.08C131.2 20.88 133.76 24 135.52 27.68Z" fill="white"/>
<path d="M99.2 6.80002C101.28 7.04002 103.28 7.76002 105.12 8.80002C105.6 9.12002 106 9.36002 106.48 9.68002L107.76 10.64C108.16 11.04 108.56 11.36 108.88 11.76C109.28 12.16 109.6 12.56 109.92 12.96C111.2 14.72 112.24 16.64 112.64 18.72C112.96 19.76 113.04 20.8 113.12 21.84C113.2 22.88 113.12 23.92 113.04 24.96C112.8 23.92 112.72 22.88 112.48 21.92L112.08 20.48C112 20.24 112 20 111.92 19.76L111.68 19.04C111.52 18.56 111.36 18.08 111.12 17.6L110.48 16.24C110.32 15.76 110 15.36 109.76 14.96C109.52 14.56 109.2 14.08 108.88 13.76C107.68 12.16 106.24 10.8 104.56 9.60002C102.96 8.40002 101.12 7.52002 99.2 6.80002Z" fill="white"/>
<path d="M189.12 42.64C188.64 43.52 187.92 44.32 187.12 45.04C186.4 45.76 185.6 46.4 184.72 47.04C183.92 47.68 183.04 48.16 182.16 48.72C181.28 49.2 180.32 49.68 179.44 50.16C178.48 50.56 177.6 50.96 176.64 51.36C175.68 51.68 174.72 52 173.76 52.32C172.8 52.56 171.76 52.88 170.8 53.12C169.76 53.28 168.8 53.52 167.76 53.6C168.72 53.2 169.68 52.8 170.56 52.48C171.52 52.08 172.4 51.76 173.36 51.36C175.2 50.56 177.04 49.84 178.88 48.96C180.72 48.16 182.48 47.2 184.16 46.24C185.92 45.12 187.6 44 189.12 42.64Z" fill="white"/>
<path d="M29.44 55.12C29.44 53.6 30.16 52.08 31.12 50.88C31.36 50.56 31.6 50.32 31.92 50L32.8 49.2C33.44 48.72 34.08 48.32 34.72 48C35.36 47.6 36.16 47.36 36.8 47.12C37.52 46.88 38.24 46.72 38.96 46.56C39.68 46.4 40.48 46.32 41.2 46.24C41.92 46.16 42.72 46.16 43.44 46.16C42.72 46.4 42 46.56 41.28 46.72C40.56 46.88 39.84 47.12 39.12 47.28C38.4 47.52 37.76 47.76 37.04 48C36.4 48.32 35.68 48.56 35.04 48.88C33.76 49.52 32.56 50.32 31.52 51.36C30.64 52.4 29.76 53.68 29.44 55.12Z" fill="white"/>
<path d="M68 32.64C67.28 31.92 66.56 31.36 65.76 30.88C64.96 30.4 64.16 29.92 63.2 29.68C62.32 29.36 61.36 29.2 60.48 29.12C60 29.04 59.52 29.12 59.04 29.04C58.56 29.04 58.08 29.12 57.6 29.12C58.08 28.96 58.56 28.8 59.04 28.72C59.52 28.64 60 28.56 60.48 28.56C61.44 28.48 62.48 28.72 63.44 28.96C64.4 29.28 65.28 29.76 66.08 30.4C66.88 31.04 67.52 31.76 68 32.64Z" fill="white"/>
<path d="M58.24 28.96C58.8 28.96 59.36 29.04 59.92 29.28C60.48 29.52 60.96 29.76 61.44 30.16C61.84 30.56 62.24 31.12 62.4 31.68C62.56 32.24 62.48 32.88 62.24 33.44C62.16 32.88 62.08 32.32 61.84 31.92C61.6 31.44 61.28 31.04 60.96 30.72C60.56 30.4 60.16 30.08 59.68 29.84C59.2 29.44 58.72 29.2 58.24 28.96Z" fill="white"/>
<path d="M52.48 38.16C49.04 39.28 45.6 40.16 42 40.8C41.12 40.96 40.24 41.12 39.28 41.2C38.4 41.28 37.44 41.36 36.48 41.28C35.44 41.2 34.64 40.72 33.76 40.4L31.36 39.2C28.16 37.68 24.8 36.56 21.28 36.48C17.76 36.32 14.24 37.04 10.88 38.4C14 36.64 17.6 35.52 21.28 35.6C23.12 35.6 24.96 35.84 26.72 36.32C28.48 36.8 30.16 37.44 31.84 38.24L34.24 39.36C35.04 39.76 35.84 40.08 36.64 40.16C38.32 40.4 40.08 40.16 41.84 39.92C45.36 39.44 48.96 38.8 52.48 38.16Z" fill="white"/>
</svg>
