<?xml version="1.0" encoding="utf-8"?>
<!-- Generator: Adobe Illustrator 23.0.5, SVG Export Plug-In . SVG Version: 6.00 Build 0)  -->
<svg version="1.1" id="Layer_1" xmlns="http://www.w3.org/2000/svg" xmlns:xlink="http://www.w3.org/1999/xlink" x="0px" y="0px"
	 viewBox="0 0 250 100" style="enable-background:new 0 0 250 100;" xml:space="preserve">
<style type="text/css">
	.st0{fill:#FFFFFF;}
	.st1{fill:#EC1C24;}
</style>
<g>
	<g>
		<path class="st0" d="M16.1,47.7c1.4-0.3,2.8-0.3,4.2-0.2s2.8,0.5,4.2,1.1c1.3,0.6,2.5,1.6,3.3,2.8c0.9,1.2,1.1,2.7,1.2,4.1
			c-0.1-0.3-0.2-0.7-0.3-1L28.5,54c-0.1-0.2-0.2-0.3-0.2-0.5c-0.2-0.3-0.3-0.6-0.5-0.9l-0.6-0.8c-0.8-1-1.9-1.9-3.1-2.4
			c-1.2-0.6-2.5-0.9-3.9-1.2c-0.7-0.1-1.4-0.2-2.1-0.3C17.5,47.8,16.8,47.8,16.1,47.7z"/>
	</g>
	<g>
		<path class="st0" d="M68.6,85.5v-1.2H72v1.2H68.6z"/>
		<path class="st0" d="M77.3,85.8l1.1,0.2c-0.1,0.8-0.4,1.4-0.9,1.9s-1.1,0.7-1.8,0.7c-0.9,0-1.6-0.3-2.1-0.9s-0.8-1.5-0.8-2.7
			c0-0.8,0.1-1.4,0.3-2c0.2-0.6,0.6-1,1-1.3c0.5-0.3,1-0.4,1.5-0.4c0.7,0,1.3,0.2,1.7,0.6c0.4,0.4,0.7,0.9,0.8,1.6L77,83.7
			c-0.1-0.5-0.3-0.8-0.5-1.1c-0.3-0.2-0.6-0.4-0.9-0.4c-0.5,0-1,0.2-1.3,0.6s-0.5,1.1-0.5,2s0.2,1.6,0.5,2.1
			c0.3,0.4,0.8,0.6,1.3,0.6c0.4,0,0.8-0.1,1.1-0.4C77.1,86.9,77.3,86.4,77.3,85.8z"/>
		<path class="st0" d="M83.7,86.2l1.1,0.2c-0.2,0.7-0.5,1.3-1,1.7c-0.5,0.4-1.1,0.6-1.8,0.6c-0.9,0-1.7-0.3-2.2-0.9S79,86.1,79,85
			c0-1.2,0.3-2.1,0.8-2.8c0.6-0.7,1.3-1,2.2-1c0.9,0,1.6,0.3,2.1,1s0.8,1.5,0.8,2.7c0,0.1,0,0.2,0,0.3h-4.8c0,0.8,0.2,1.4,0.6,1.8
			s0.8,0.6,1.3,0.6c0.4,0,0.7-0.1,1-0.3C83.3,87,83.5,86.7,83.7,86.2z M80.1,84.2h3.6c0-0.6-0.2-1-0.4-1.3c-0.3-0.5-0.8-0.7-1.3-0.7
			s-0.9,0.2-1.3,0.5S80.2,83.6,80.1,84.2z"/>
		<path class="st0" d="M85.2,81.4h5.2v1h-2.1v6h-1.1v-6h-2.1L85.2,81.4L85.2,81.4z"/>
		<path class="st0" d="M91.4,81.4h1.1v2.7h1.4c0.9,0,1.6,0.2,2.1,0.6s0.7,0.9,0.7,1.6c0,0.6-0.2,1.1-0.6,1.5s-1,0.6-1.9,0.6h-2.7
			L91.4,81.4L91.4,81.4z M92.5,87.4h1.1c0.7,0,1.2-0.1,1.5-0.3c0.3-0.2,0.4-0.5,0.4-0.9c0-0.3-0.1-0.6-0.3-0.8
			C95,85.2,94.5,85,93.8,85h-1.3C92.5,85,92.5,87.4,92.5,87.4z"/>
		<path class="st0" d="M105.4,87.5c-0.4,0.4-0.8,0.6-1.2,0.8c-0.4,0.2-0.8,0.2-1.2,0.2c-0.7,0-1.2-0.2-1.6-0.6s-0.6-0.9-0.6-1.4
			c0-0.3,0.1-0.7,0.2-0.9c0.1-0.3,0.3-0.5,0.6-0.7c0.2-0.2,0.5-0.3,0.8-0.4c0.2-0.1,0.5-0.1,1-0.2c0.9-0.1,1.5-0.3,1.9-0.4
			c0-0.2,0-0.3,0-0.3c0-0.5-0.1-0.8-0.3-1c-0.3-0.3-0.7-0.4-1.2-0.4s-0.9,0.1-1.1,0.3c-0.2,0.2-0.4,0.5-0.5,1l-1.1-0.2
			c0.1-0.5,0.3-0.9,0.5-1.2c0.2-0.3,0.5-0.5,1-0.7s0.9-0.2,1.4-0.2s1,0.1,1.3,0.2s0.6,0.3,0.8,0.5c0.2,0.2,0.3,0.5,0.3,0.8
			c0,0.2,0.1,0.6,0.1,1.1v1.6c0,1.1,0,1.8,0.1,2.1c0,0.3,0.1,0.6,0.3,0.8h-1.1C105.5,88.2,105.4,87.9,105.4,87.5z M105.3,84.9
			c-0.4,0.2-1,0.3-1.8,0.4c-0.4,0.1-0.8,0.2-0.9,0.2c-0.2,0.1-0.3,0.2-0.4,0.4c-0.1,0.2-0.2,0.4-0.2,0.6c0,0.3,0.1,0.6,0.3,0.8
			c0.2,0.2,0.5,0.3,1,0.3c0.4,0,0.8-0.1,1.1-0.3c0.3-0.2,0.6-0.5,0.7-0.8s0.2-0.7,0.2-1.2C105.3,85.3,105.3,84.9,105.3,84.9z"/>
		<path class="st0" d="M108.1,81.4h2.5c0.6,0,1.1,0.1,1.4,0.2s0.6,0.3,0.8,0.6c0.2,0.3,0.3,0.7,0.3,1.1c0,0.3-0.1,0.6-0.2,0.9
			s-0.3,0.5-0.6,0.6c0.3,0.1,0.5,0.3,0.7,0.6c0.2,0.3,0.3,0.7,0.3,1.1c0,0.7-0.3,1.2-0.6,1.5s-1,0.5-1.7,0.5h-2.9L108.1,81.4
			L108.1,81.4z M109.2,84.3h1.2c0.5,0,0.8,0,0.9-0.1c0.2-0.1,0.3-0.2,0.5-0.3c0.1-0.2,0.2-0.4,0.2-0.6c0-0.4-0.1-0.6-0.4-0.8
			c-0.2-0.1-0.6-0.2-1.2-0.2h-1.2V84.3z M109.2,87.4h1.4c0.6,0,1-0.1,1.3-0.2c0.2-0.2,0.3-0.4,0.4-0.8c0-0.2-0.1-0.4-0.2-0.6
			s-0.3-0.3-0.5-0.4c-0.2,0-0.6-0.1-1-0.1h-1.3v2.1H109.2z"/>
		<path class="st0" d="M113.8,81.4h5.2v1h-2.1v6h-1.1v-6h-2.1L113.8,81.4L113.8,81.4z"/>
		<path class="st0" d="M119.5,84.9c0-1.3,0.3-2.3,1-2.9c0.5-0.5,1.2-0.8,2-0.8c0.9,0,1.6,0.3,2.2,0.9s0.8,1.5,0.8,2.6
			c0,0.9-0.1,1.6-0.4,2.1c-0.2,0.5-0.6,0.9-1.1,1.2c-0.5,0.3-1,0.4-1.5,0.4c-0.9,0-1.6-0.3-2.2-0.9S119.5,86.1,119.5,84.9z
			 M120.6,84.9c0,0.9,0.2,1.6,0.5,2c0.4,0.4,0.8,0.7,1.3,0.7s1-0.2,1.3-0.7c0.4-0.5,0.5-1.1,0.5-2.1c0-0.9-0.2-1.5-0.5-2
			c-0.4-0.4-0.8-0.7-1.3-0.7s-1,0.2-1.3,0.7C120.7,83.3,120.6,84,120.6,84.9z"/>
		<path class="st0" d="M125.8,81.4h5.2v1h-2v6h-1.1v-6h-2.1V81.4z"/>
		<path class="st0" d="M136.3,86.2l1.1,0.2c-0.2,0.7-0.5,1.3-1,1.7c-0.5,0.4-1.1,0.6-1.8,0.6c-0.9,0-1.7-0.3-2.2-0.9
			s-0.8-1.5-0.8-2.7s0.3-2.1,0.8-2.8c0.6-0.7,1.3-1,2.2-1s1.6,0.3,2.1,1s0.8,1.5,0.8,2.7c0,0.1,0,0.2,0,0.3h-4.8
			c0,0.8,0.2,1.4,0.6,1.8c0.4,0.4,0.8,0.6,1.3,0.6c0.4,0,0.7-0.1,1-0.3C135.9,87,136.1,86.7,136.3,86.2z M132.8,84.2h3.6
			c0-0.6-0.2-1-0.4-1.3c-0.3-0.5-0.8-0.7-1.3-0.7s-0.9,0.2-1.3,0.5S132.8,83.6,132.8,84.2z"/>
		<path class="st0" d="M137.8,88.4l2.3-3.7l-2.2-3.4h1.4l1,1.6c0.2,0.3,0.3,0.6,0.4,0.8c0.2-0.3,0.3-0.5,0.5-0.8l1.1-1.7h1.3
			l-2.2,3.3l2.4,3.7h-1.3l-1.3-2.2l-0.3-0.6l-1.7,2.8h-1.4V88.4z"/>
		<path class="st0" d="M144.7,81.4h1.1v6h3v-6h1.1v6h0.7v3h-0.9v-2h-5L144.7,81.4L144.7,81.4z"/>
		<path class="st0" d="M156,86.2l1.1,0.2c-0.2,0.7-0.5,1.3-1,1.7c-0.5,0.4-1.1,0.6-1.8,0.6c-0.9,0-1.7-0.3-2.2-0.9s-0.8-1.5-0.8-2.7
			s0.3-2.1,0.8-2.8c0.6-0.7,1.3-1,2.2-1s1.6,0.3,2.1,1s0.8,1.5,0.8,2.7c0,0.1,0,0.2,0,0.3h-4.8c0,0.8,0.2,1.4,0.6,1.8
			c0.4,0.4,0.8,0.6,1.3,0.6c0.4,0,0.7-0.1,1-0.3C155.6,87,155.8,86.7,156,86.2z M152.4,84.2h3.6c0-0.6-0.2-1-0.4-1.3
			c-0.3-0.5-0.8-0.7-1.3-0.7s-0.9,0.2-1.3,0.5S152.4,83.6,152.4,84.2z"/>
		<path class="st0" d="M158.4,81.4h1.1v2.9h3v-2.9h1.1v7h-1.1v-3.1h-3v3.1h-1.1V81.4z"/>
		<path class="st0" d="M164.6,81.4h5.2v1h-2.1v6h-1.1v-6h-2.1v-1H164.6z"/>
		<path class="st0" d="M170.9,91.1v-9.7h1v0.9c0.2-0.4,0.5-0.6,0.8-0.8c0.3-0.2,0.6-0.3,1.1-0.3s1,0.2,1.4,0.5s0.7,0.7,0.9,1.3
			c0.2,0.6,0.3,1.2,0.3,1.8c0,0.7-0.1,1.4-0.4,1.9s-0.6,1-1,1.3s-0.9,0.5-1.4,0.5c-0.4,0-0.7-0.1-1-0.3c-0.3-0.2-0.5-0.4-0.7-0.6V91
			L170.9,91.1L170.9,91.1z M171.9,84.9c0,0.9,0.2,1.6,0.5,2s0.7,0.6,1.2,0.6s0.9-0.2,1.2-0.7s0.5-1.1,0.5-2.1c0-0.9-0.2-1.6-0.5-2
			s-0.7-0.7-1.2-0.7s-0.9,0.2-1.2,0.7C172,83.3,171.9,84,171.9,84.9z"/>
		<path class="st0" d="M177.3,84.9c0-1.3,0.3-2.3,1-2.9c0.5-0.5,1.2-0.8,2-0.8c0.9,0,1.6,0.3,2.2,0.9c0.6,0.6,0.8,1.5,0.8,2.6
			c0,0.9-0.1,1.6-0.4,2.1c-0.2,0.5-0.6,0.9-1.1,1.2c-0.5,0.3-1,0.4-1.5,0.4c-0.9,0-1.6-0.3-2.2-0.9S177.3,86.1,177.3,84.9z
			 M178.4,84.9c0,0.9,0.2,1.6,0.5,2c0.4,0.4,0.8,0.7,1.3,0.7s1-0.2,1.3-0.7c0.4-0.5,0.5-1.1,0.5-2.1c0-0.9-0.2-1.5-0.5-2
			c-0.4-0.4-0.8-0.7-1.3-0.7s-1,0.2-1.3,0.7C178.6,83.3,178.4,84,178.4,84.9z"/>
		<path class="st0" d="M184.6,81.4h2.5c0.6,0,1.1,0.1,1.4,0.2s0.6,0.3,0.8,0.6c0.2,0.3,0.3,0.7,0.3,1.1c0,0.3-0.1,0.6-0.2,0.9
			c-0.1,0.3-0.3,0.5-0.6,0.6c0.3,0.1,0.5,0.3,0.7,0.6c0.2,0.3,0.3,0.7,0.3,1.1c0,0.7-0.3,1.2-0.6,1.5s-1,0.5-1.7,0.5h-2.9V81.4z
			 M185.7,84.3h1.2c0.5,0,0.8,0,0.9-0.1c0.2-0.1,0.3-0.2,0.5-0.3c0.1-0.2,0.2-0.4,0.2-0.6c0-0.4-0.1-0.6-0.4-0.8
			c-0.2-0.1-0.6-0.2-1.2-0.2h-1.2V84.3z M185.7,87.4h1.4c0.6,0,1-0.1,1.3-0.2c0.2-0.2,0.3-0.4,0.4-0.8c0-0.2-0.1-0.4-0.2-0.6
			c-0.1-0.2-0.3-0.3-0.5-0.4c-0.2,0-0.6-0.1-1-0.1h-1.3L185.7,87.4L185.7,87.4z"/>
		<path class="st0" d="M190.7,85.5v-1.2h3.3v1.2H190.7z"/>
	</g>
	<g>
		<path class="st1" d="M70.8,64.4l2.7,1.2c-0.4,2.1-1.1,3.6-2.1,4.6s-2.2,1.4-3.6,1.4c-1.8,0-3.2-0.8-4.4-2.3
			c-1.3-1.8-1.9-4.1-1.9-7.1c0-3.2,0.6-5.6,1.9-7.4c1.1-1.6,2.6-2.3,4.5-2.3c1.5,0,2.8,0.6,3.9,1.7c0.7,0.8,1.3,2.1,1.6,3.7
			l-2.7,0.9c-0.2-1-0.5-1.8-1-2.3s-1.1-0.8-1.8-0.8c-1,0-1.8,0.5-2.5,1.5s-1,2.6-1,4.9s0.3,4,0.9,5s1.4,1.5,2.4,1.5
			c0.7,0,1.4-0.3,1.9-0.9C70.2,66.8,70.5,65.8,70.8,64.4z"/>
		<path class="st1" d="M74.6,60.6v-2.8h9v2.8h-3.2v10.7h-2.6V60.6H74.6z"/>
		<path class="st1" d="M85.1,71.3V57.8h2.5v8.4l4-8.4h2.6v13.5h-2.5v-8.6l-4.1,8.6C87.6,71.3,85.1,71.3,85.1,71.3z"/>
		<path class="st1" d="M103.9,71.3V60.6h-3.6v6.1c0,1-0.1,1.8-0.2,2.4s-0.3,1.1-0.6,1.5c-0.3,0.4-0.6,0.6-0.9,0.7s-0.7,0.1-1.2,0.1
			c-0.3,0-0.9-0.1-1.6-0.2v-2.6c0.2,0,0.6,0,1.1,0c0.3,0,0.5-0.1,0.6-0.4s0.1-0.8,0.1-1.6v-8.9h8.8v13.5h-2.5V71.3z"/>
		<path class="st1" d="M114.7,52.8h1.2c0.4,0,0.7-0.2,0.7-0.5h1.8c0,1-0.2,1.7-0.5,2.2s-0.7,0.8-1,0.9c-0.4,0.1-1.1,0.2-2.2,0.2
			s-1.8,0.1-2.2,0.2s-0.7,0.4-1,0.7s-0.6,0.9-0.8,1.6c-0.2,0.7-0.3,1.6-0.3,2.7c0.8-2,2.1-3,3.7-3c1.3,0,2.4,0.7,3.3,2
			c0.9,1.4,1.4,3,1.4,4.8c0,1.9-0.5,3.6-1.5,4.9s-2.2,2-3.7,2c-1.1,0-2.1-0.4-3-1.2s-1.4-1.9-1.6-3.1s-0.4-3.1-0.4-5.4
			c0-3.2,0.4-5.6,1.3-7C110.9,53.5,112.4,52.8,114.7,52.8z M113.7,60.7c-0.7,0-1.2,0.4-1.7,1.1c-0.5,0.7-0.7,1.7-0.7,2.9
			c0,1.2,0.2,2.2,0.7,2.9c0.4,0.7,1,1.1,1.7,1.1s1.3-0.4,1.7-1.1c0.5-0.7,0.7-1.7,0.7-2.9s-0.2-2.1-0.7-2.9
			C115,61,114.4,60.7,113.7,60.7z"/>
		<path class="st1" d="M126.8,67l2.6,0.6c-0.4,1.4-0.9,2.4-1.6,3c-0.7,0.7-1.6,1-2.7,1c-1.5,0-2.6-0.5-3.4-1.6
			c-0.9-1.3-1.4-3-1.4-5.3c0-2.2,0.5-4.1,1.4-5.4c0.8-1.1,1.9-1.7,3.1-1.7c1.4,0,2.5,0.6,3.3,1.8c0.9,1.3,1.4,3.3,1.4,5.9v0.4H123
			c0,1.1,0.2,1.9,0.6,2.5s0.9,0.9,1.5,0.9C126,68.9,126.6,68.3,126.8,67z M127,63.4c0-1.1-0.2-1.8-0.6-2.4s-0.8-0.8-1.4-0.8
			s-1,0.3-1.4,0.8c-0.4,0.6-0.6,1.3-0.6,2.3h4V63.4z"/>
		<path class="st1" d="M131.6,57.8h2.4v2c0.3-0.7,0.8-1.3,1.3-1.7s1.1-0.6,1.8-0.6c1.1,0,2.1,0.6,2.9,1.8c0.8,1.2,1.2,2.9,1.2,5.1
			c0,2.3-0.4,4.1-1.2,5.3c-0.8,1.2-1.8,1.8-2.9,1.8c-0.5,0-1-0.1-1.5-0.4s-0.9-0.8-1.4-1.5v6.8h-2.6V57.8z M134.3,64.3
			c0,1.5,0.2,2.6,0.7,3.4c0.4,0.7,1,1.1,1.6,1.1s1.1-0.3,1.5-1s0.6-1.8,0.6-3.3c0-1.4-0.2-2.5-0.6-3.2c-0.4-0.7-0.9-1-1.5-1
			s-1.2,0.3-1.6,1C134.5,62,134.3,63,134.3,64.3z"/>
		<path class="st1" d="M143.4,71.3V57.8h6.7v2.8H146v10.7C146,71.3,143.4,71.3,143.4,71.3z"/>
		<path class="st0" d="M150.7,66.3v-3.6h5.2v3.6H150.7z"/>
		<path class="st0" d="M159.8,61.9l-2.4-0.6c0.3-1.4,0.8-2.3,1.4-2.9c0.7-0.6,1.6-0.9,2.9-0.9c1.1,0,2,0.2,2.5,0.5
			c0.6,0.3,1,0.8,1.3,1.4c0.3,0.6,0.4,1.7,0.4,3.3v4.2c0,1.2,0,2,0.1,2.6s0.2,1.2,0.5,1.8h-2.6l-0.3-1.5c-0.4,0.6-0.9,1-1.4,1.3
			s-1.1,0.5-1.6,0.5c-1,0-1.8-0.4-2.4-1.1c-0.6-0.7-0.9-1.7-0.9-2.9c0-0.8,0.1-1.4,0.4-2s0.6-1,1.1-1.4c0.5-0.3,1.2-0.6,2.2-0.9
			c1.2-0.3,2.1-0.6,2.5-0.9c0-0.7,0-1.2-0.1-1.5c-0.1-0.2-0.3-0.4-0.5-0.6c-0.3-0.1-0.6-0.2-1.1-0.2s-0.8,0.1-1.1,0.4
			C160.2,60.8,160,61.2,159.8,61.9z M163.3,64.8c-0.3,0.2-0.9,0.3-1.6,0.5c-0.8,0.2-1.3,0.5-1.6,0.8s-0.4,0.7-0.4,1.1
			c0,0.5,0.1,1,0.4,1.3c0.3,0.4,0.6,0.5,1,0.5s0.7-0.1,1.1-0.4c0.4-0.3,0.6-0.6,0.8-1c0.1-0.4,0.2-1.1,0.2-2.1v-0.7H163.3z"/>
		<path class="st0" d="M175,71.3h-6.5V57.8h5.9c2.2,0,3.3,1.2,3.3,3.5c0,1.6-0.6,2.6-1.7,3c1.3,0.5,2,1.6,2,3.4
			c0,1.1-0.3,1.9-0.9,2.6S176,71.3,175,71.3z M171.2,60.1v3.3h1.9c1.4,0,2.1-0.6,2.1-1.7c0-1.1-0.7-1.6-2.1-1.6H171.2z M171.2,65.5
			V69h2.3c1.3,0,2-0.6,2-1.7c0-0.6-0.2-1-0.5-1.3s-1.1-0.5-2.2-0.5H171.2z"/>
		<path class="st0" d="M179.1,60.6v-2.8h9v2.8h-3.2v10.7h-2.6V60.6H179.1z"/>
		<path class="st0" d="M189.1,64.3c0-1.3,0.2-2.5,0.7-3.6s1.1-1.9,1.9-2.4c0.8-0.5,1.6-0.8,2.6-0.8c1.6,0,2.9,0.7,3.8,2.1
			c0.9,1.4,1.4,3,1.4,4.9c0,1.4-0.2,2.6-0.7,3.8c-0.5,1.1-1.1,2-1.9,2.5c-0.8,0.6-1.6,0.8-2.5,0.8c-1.5,0-2.7-0.6-3.7-1.9
			C189.6,68.4,189.1,66.7,189.1,64.3z M191.8,64.5c0,1.4,0.2,2.4,0.7,3.1s1.1,1,1.7,1c0.7,0,1.2-0.4,1.7-1.1s0.7-1.7,0.7-3.1
			c0-1.3-0.2-2.4-0.7-3.1c-0.5-0.7-1.1-1.1-1.7-1.1c-0.7,0-1.2,0.4-1.7,1.1C192,62.1,191.8,63.2,191.8,64.5z"/>
	</g>
	<g>
		<path class="st0" d="M66.5,47.4c13.4-5.6,27.6-9.2,42-11.5c7.2-1.2,14.4-1.9,21.7-2.4c7.3-0.5,14.6-0.6,21.9-0.4
			c7.3,0.2,14.6,0.8,21.8,1.8c3.6,0.4,7.2,1.1,10.8,1.7c3.6,0.7,7.2,1.4,10.7,2.2c14.2,3.2,28,8.2,41.1,14.3
			c-6.8-2.5-13.6-5-20.6-6.9l-2.6-0.8l-2.6-0.7c-1.7-0.5-3.5-0.9-5.2-1.4c-3.5-0.8-7-1.7-10.6-2.4c-3.5-0.8-7.1-1.3-10.6-2
			c-3.6-0.5-7.1-1.1-10.7-1.4c-7.2-0.8-14.3-1.4-21.6-1.6c-14.4-0.5-28.8,0.3-43.2,2.1c-7.2,1-14.3,2.2-21.3,3.7
			C80.3,43.3,73.3,45.1,66.5,47.4z"/>
	</g>
	<g>
		<path class="st0" d="M169.4,34.6c-2.7-4.2-6.2-7.8-9.9-11c-3.8-3.2-7.9-6-12.2-8.3c-2.2-1.1-4.4-2.3-6.7-3.2
			c-1.1-0.5-2.3-1-3.4-1.4l-3.5-1.2c-0.6-0.2-1.2-0.4-1.8-0.6l-1.8-0.5l-3.6-1c-2.4-0.6-4.9-1-7.3-1.6c1.2,0.1,2.5,0.2,3.7,0.4
			c1.2,0.2,2.5,0.2,3.7,0.5l3.7,0.7l1.8,0.4c0.6,0.1,1.2,0.3,1.8,0.5l3.6,1.1c1.2,0.4,2.4,0.9,3.5,1.3c2.4,0.8,4.6,2.1,6.9,3.1
			c4.4,2.5,8.6,5.3,12.2,8.8C164,26.1,167.2,30,169.4,34.6z"/>
	</g>
	<g>
		<path class="st0" d="M124,8.5c2.6,0.3,5.1,1.2,7.4,2.5c0.6,0.4,1.1,0.7,1.7,1.1l1.6,1.2c0.5,0.5,1,0.9,1.4,1.4
			c0.5,0.5,0.9,1,1.3,1.5c1.6,2.2,2.9,4.6,3.4,7.2c0.4,1.3,0.5,2.6,0.6,3.9s0,2.6-0.1,3.9c-0.3-1.3-0.4-2.6-0.7-3.8l-0.5-1.8
			c-0.1-0.3-0.1-0.6-0.2-0.9l-0.3-0.9c-0.2-0.6-0.4-1.2-0.7-1.8l-0.8-1.7c-0.2-0.6-0.6-1.1-0.9-1.6c-0.3-0.5-0.7-1.1-1.1-1.5
			c-1.5-2-3.3-3.7-5.4-5.2C128.7,10.5,126.4,9.4,124,8.5z"/>
	</g>
	<g>
		<path class="st0" d="M236.4,53.3c-0.6,1.1-1.5,2.1-2.5,3c-0.9,0.9-1.9,1.7-3,2.5c-1,0.8-2.1,1.4-3.2,2.1c-1.1,0.6-2.3,1.2-3.4,1.8
			c-1.2,0.5-2.3,1-3.5,1.5c-1.2,0.4-2.4,0.8-3.6,1.2c-1.2,0.3-2.5,0.7-3.7,1c-1.3,0.2-2.5,0.5-3.8,0.6c1.2-0.5,2.4-1,3.5-1.4
			c1.2-0.5,2.3-0.9,3.5-1.4c2.3-1,4.6-1.9,6.9-3c2.3-1,4.5-2.2,6.6-3.4C232.4,56.4,234.5,55,236.4,53.3z"/>
	</g>
	<g>
		<path class="st0" d="M36.8,68.9c0-1.9,0.9-3.8,2.1-5.3c0.3-0.4,0.6-0.7,1-1.1l1.1-1c0.8-0.6,1.6-1.1,2.4-1.5
			c0.8-0.5,1.8-0.8,2.6-1.1c0.9-0.3,1.8-0.5,2.7-0.7s1.9-0.3,2.8-0.4c0.9-0.1,1.9-0.1,2.8-0.1c-0.9,0.3-1.8,0.5-2.7,0.7
			s-1.8,0.5-2.7,0.7c-0.9,0.3-1.7,0.6-2.6,0.9c-0.8,0.4-1.7,0.7-2.5,1.1c-1.6,0.8-3.1,1.8-4.4,3.1C38.3,65.5,37.2,67.1,36.8,68.9z"
			/>
	</g>
	<g>
		<path class="st0" d="M85,40.8c-0.9-0.9-1.8-1.6-2.8-2.2c-1-0.6-2-1.2-3.2-1.5c-1.1-0.4-2.3-0.6-3.4-0.7c-0.6-0.1-1.2,0-1.8-0.1
			c-0.6,0-1.2,0.1-1.8,0.1c0.6-0.2,1.2-0.4,1.8-0.5c0.6-0.1,1.2-0.2,1.8-0.2c1.2-0.1,2.5,0.2,3.7,0.5c1.2,0.4,2.3,1,3.3,1.8
			C83.6,38.8,84.4,39.7,85,40.8z"/>
	</g>
	<g>
		<path class="st0" d="M72.8,36.2c0.7,0,1.4,0.1,2.1,0.4c0.7,0.3,1.3,0.6,1.9,1.1c0.5,0.5,1,1.2,1.2,1.9s0.1,1.5-0.2,2.2
			c-0.1-0.7-0.2-1.4-0.5-1.9c-0.3-0.6-0.7-1.1-1.1-1.5c-0.5-0.4-1-0.8-1.6-1.1C74,36.8,73.4,36.5,72.8,36.2z"/>
	</g>
	<g>
		<path class="st0" d="M65.6,47.7c-4.3,1.4-8.6,2.5-13.1,3.3c-1.1,0.2-2.2,0.4-3.4,0.5c-1.1,0.1-2.3,0.2-3.5,0.1
			c-1.3-0.1-2.3-0.7-3.4-1.1l-3-1.5c-4-1.9-8.2-3.3-12.6-3.4c-4.4-0.2-8.8,0.7-13,2.4c3.9-2.2,8.4-3.6,13-3.5c2.3,0,4.6,0.3,6.8,0.9
			c2.2,0.6,4.3,1.4,6.4,2.4l3,1.4c1,0.5,2,0.9,3,1c2.1,0.3,4.3,0,6.5-0.3C56.7,49.3,61.2,48.5,65.6,47.7z"/>
	</g>
</g>
</svg>
