<svg width="30" height="30" viewBox="0 0 30 30" fill="none" xmlns="http://www.w3.org/2000/svg">
<path d="M15 0C6.71123 0 0 6.71123 0 15C0 23.2888 6.71123 30 15 30C23.2888 30 30 23.2888 30 15C30 6.71123 23.2888 0 15 0ZM23.5829 21.5775L20.9626 21.6043C20.9626 21.6043 20.4011 21.7112 19.6524 21.2032C18.6631 20.5348 17.7273 18.7701 17.0053 19.0107C16.2834 19.2513 16.3102 20.8289 16.3102 20.8289C16.3102 20.8289 16.3102 21.1765 16.1497 21.3369C15.9626 21.5241 15.615 21.5775 15.615 21.5775H14.4385C14.4385 21.5775 11.8449 21.738 9.54546 19.3583C7.05882 16.7647 4.83957 11.6043 4.83957 11.6043C4.83957 11.6043 4.70588 11.2567 4.83957 11.0963C5 10.9091 5.42781 10.9091 5.42781 10.9091L8.23529 10.8824C8.23529 10.8824 8.50267 10.9358 8.68984 11.0695C8.85027 11.1765 8.93048 11.3904 8.93048 11.3904C8.93048 11.3904 9.38503 12.5401 10 13.5829C11.1765 15.615 11.7112 16.0695 12.1123 15.8289C12.7005 15.508 12.5134 12.9679 12.5134 12.9679C12.5134 12.9679 12.5134 12.0321 12.2193 11.631C11.9786 11.3102 11.5508 11.2299 11.3369 11.2032C11.1765 11.1765 11.4439 10.8021 11.7647 10.6417C12.2727 10.4011 13.1551 10.3743 14.2246 10.4011C15.0535 10.4011 15.2941 10.4545 15.615 10.5348C16.5775 10.7754 16.2567 11.6845 16.2567 13.8503C16.2567 14.5455 16.123 15.5348 16.631 15.8556C16.8449 15.9893 17.3797 15.8824 18.6898 13.6364C19.3048 12.5668 19.7861 11.3369 19.7861 11.3369C19.7861 11.3369 19.893 11.123 20.0535 11.016C20.2139 10.9091 20.4278 10.9358 20.4278 10.9358L23.3957 10.9091C23.3957 10.9091 24.2781 10.8021 24.4385 11.2032C24.5989 11.631 24.1176 12.6203 22.8877 14.2246C20.9091 16.8717 20.6685 16.631 22.3262 18.1551C23.9037 19.6257 24.2246 20.3209 24.2781 20.4278C24.9733 21.4973 23.5829 21.5775 23.5829 21.5775Z" fill="#AAAFB5"/>
</svg>
